<svg width="512" height="512" viewBox="0 0 512 512" fill="none" xmlns="http://www.w3.org/2000/svg">
<!-- Background Squircle -->
<rect width="512" height="512" rx="128" fill="#4F46E5"/>

<!-- Stylized Diary -->

<g filter="url(#filter0_d)">
<!-- Book Cover -->
<path d="M160 120C160 108.954 168.954 100 180 100H360C371.046 100 380 108.954 380 120V392C380 403.046 371.046 412 360 412H180C168.954 412 160 403.046 160 392V120Z" fill="white"/>

<!-- Binding Detail -->
<path d="M160 120C160 108.954 168.954 100 180 100H210V412H180C168.954 412 160 403.046 160 392V120Z" fill="#E2E8F0"/>

<!-- Bookmark -->
<path d="M290 100H330V220L310 200L290 220V100Z" fill="#4F46E5"/>

<!-- Decorative Lines (Representing Text/Pages) -->
<rect x="230" y="260" width="110" height="12" rx="6" fill="#CBD5E1"/>
<rect x="230" y="300" width="110" height="12" rx="6" fill="#CBD5E1"/>
<rect x="230" y="340" width="70" height="12" rx="6" fill="#CBD5E1"/>


</g>

<defs>
<filter id="filter0_d" x="140" y="90" width="260" height="342" filterUnits="userSpaceOnUse" color-interpolation-filters="sRGB">
<feFlood flood-opacity="0" result="BackgroundImageFix"/>
<feColorMatrix in="SourceAlpha" type="matrix" values="0 0 0 0 0 0 0 0 0 0 0 0 0 0 0 0 0 0 127 0" result="hardAlpha"/>
<feOffset dy="10"/>
<feGaussianBlur stdDeviation="10"/>
<feComposite in2="hardAlpha" operator="out"/>
<feColorMatrix type="matrix" values="0 0 0 0 0 0 0 0 0 0 0 0 0 0 0 0 0 0 0.2 0"/>
<feBlend mode="normal" in2="BackgroundImageFix" result="effect1_dropShadow"/>
<feBlend mode="normal" in="SourceGraphic" in2="effect1_dropShadow" result="shape"/>
</filter>
</defs>
</svg>
